<?xml version="1.0" encoding="utf-8"?>
<!-- Generator: Adobe Illustrator 24.1.1, SVG Export Plug-In . SVG Version: 6.00 Build 0)  -->
<svg version="1.1" id="Layer_1" xmlns="http://www.w3.org/2000/svg" xmlns:xlink="http://www.w3.org/1999/xlink" x="0px" y="0px"
	 viewBox="0 0 32 32" style="enable-background:new 0 0 32 32;" xml:space="preserve">
<style type="text/css">
	.st0{fill:#4A81AE;}
</style>
<path class="st0" d="M0.01,0.03v32.03h32.03V0.03H0.01z M9.21,27.39H4.78V10.86h4.43V27.39z M8.79,8.23
	c-0.45,0.43-1.05,0.64-1.8,0.64S5.65,8.66,5.2,8.23C4.74,7.8,4.52,7.25,4.52,6.58c0-0.66,0.22-1.21,0.66-1.63
	C5.62,4.52,6.23,4.3,6.99,4.3c0.75,0,1.35,0.21,1.8,0.64s0.67,0.97,0.67,1.63C9.47,7.25,9.24,7.8,8.79,8.23z M27.02,27.39H22.6
	V16.82c0-0.94-0.2-1.62-0.61-2.04s-1.08-0.63-2.03-0.63c-1.24,0-2.17,0.53-2.8,1.59V27.4h-4.42V10.86h4.16l0.14,1.91
	c1.18-1.48,2.77-2.22,4.75-2.22c1.75,0,3.06,0.51,3.91,1.54s1.29,2.57,1.31,4.61v10.69H27.02z"/>
</svg>
