<?xml version="1.0" encoding="utf-8"?>
<!-- Generator: Adobe Illustrator 24.1.2, SVG Export Plug-In . SVG Version: 6.00 Build 0)  -->
<svg version="1.1" id="Layer_1" xmlns="http://www.w3.org/2000/svg" xmlns:xlink="http://www.w3.org/1999/xlink" x="0px" y="0px"
	 viewBox="0 0 43 30" style="enable-background:new 0 0 43 30;" xml:space="preserve">
<style type="text/css">
	.st0{fill:#ED1C24;}
</style>
<g>
	<g>
		<path class="st0" d="M32.39,27.69H20.18c-0.11,0-0.21-0.05-0.28-0.13c-0.07-0.08-0.1-0.19-0.09-0.3c0.26-1.7,0.89-3.01,1.28-3.69
			c0.01-0.03,0.02-0.06,0.04-0.08c0.3-0.51,0.46-1.06,0.46-1.62c0-0.98-0.44-1.9-1.21-2.51c-0.77-0.62-1.78-0.84-2.76-0.61
			c-1.04,0.24-1.94,1.06-2.29,2.11c-0.37,1.13-0.05,2.05,0.28,2.63c0.02,0.03,0.03,0.06,0.04,0.1c0.39,0.68,1.02,1.99,1.28,3.69
			c0.02,0.11-0.01,0.22-0.09,0.3c-0.07,0.08-0.17,0.13-0.28,0.13h-6.03c-0.61,0-1.12-0.5-1.12-1.12V14.17
			c-1.6,0.29-2.81,0.92-3.28,1.2c-0.03,0.02-0.07,0.03-0.1,0.04c-1.7,0.94-3.82,0.46-4.98-1c-0.76-0.95-1.03-2.19-0.75-3.4
			c0.3-1.3,1.32-2.41,2.61-2.82c1.36-0.44,2.46-0.08,3.16,0.32C6.1,8.52,6.12,8.53,6.15,8.54c0.47,0.27,1.68,0.9,3.27,1.19V3.37
			c0-0.8,0.65-1.45,1.45-1.45h10.36c0.11,0,0.21,0.05,0.28,0.13c0.07,0.08,0.1,0.19,0.09,0.3c-0.26,1.73-0.9,3.06-1.29,3.74
			c-0.01,0.03-0.02,0.06-0.04,0.08c-0.3,0.51-0.46,1.06-0.46,1.62c0,0.98,0.44,1.9,1.21,2.52c0.77,0.61,1.78,0.83,2.77,0.61
			c1.05-0.24,1.94-1.07,2.28-2.12c0.37-1.13,0.05-2.04-0.29-2.61c-0.02-0.03-0.03-0.07-0.04-0.1c-0.39-0.69-1.03-2.01-1.28-3.73
			c-0.02-0.11,0.01-0.22,0.09-0.3c0.07-0.08,0.17-0.13,0.28-0.13h7.68c0.76,0,1.38,0.62,1.38,1.38v14.08
			c1.49-0.31,2.62-0.9,3.06-1.16c0.03-0.02,0.07-0.03,0.11-0.04c0.98-0.54,2.06-0.65,3.13-0.29c0,0,0,0,0,0
			c1.29,0.42,2.31,1.53,2.61,2.82c0.28,1.21,0,2.45-0.75,3.4c-1.17,1.47-3.32,1.94-5.02,0.98c-0.03-0.01-0.06-0.02-0.08-0.03
			c-0.54-0.32-1.62-0.86-3.04-1.15v4.3C33.89,27.02,33.22,27.69,32.39,27.69z M20.63,26.95h11.76c0.42,0,0.76-0.34,0.76-0.76v-4.74
			c0-0.11,0.05-0.21,0.13-0.28c0.08-0.07,0.2-0.1,0.3-0.08c1.69,0.27,2.99,0.89,3.66,1.28c0.03,0.01,0.06,0.02,0.08,0.04
			c1.4,0.83,3.17,0.46,4.14-0.76c0.61-0.77,0.84-1.78,0.61-2.77c-0.24-1.04-1.07-1.94-2.11-2.28l0,0c-1.13-0.37-2.05-0.05-2.62,0.29
			c-0.03,0.02-0.07,0.03-0.1,0.04c-0.67,0.38-1.97,1.01-3.65,1.27c-0.1,0.02-0.22-0.01-0.3-0.08c-0.08-0.07-0.13-0.17-0.13-0.28V3.3
			c0-0.35-0.28-0.63-0.63-0.63h-7.24c0.3,1.53,0.91,2.69,1.17,3.14c0.02,0.03,0.03,0.07,0.04,0.1c0.54,0.98,0.64,2.06,0.3,3.12
			c-0.42,1.29-1.52,2.32-2.82,2.62c-1.21,0.28-2.45,0.01-3.4-0.75c-0.95-0.76-1.49-1.89-1.49-3.1c0-0.67,0.17-1.32,0.51-1.92
			c0.01-0.03,0.02-0.06,0.03-0.08c0.26-0.45,0.86-1.6,1.16-3.12h-9.92c-0.39,0-0.71,0.32-0.71,0.71v6.79c0,0.11-0.05,0.21-0.13,0.28
			c-0.08,0.07-0.19,0.1-0.29,0.09c-1.8-0.24-3.18-0.91-3.89-1.31C5.82,9.22,5.79,9.21,5.77,9.19C5.2,8.86,4.28,8.53,3.14,8.9
			c-1.05,0.34-1.88,1.23-2.12,2.28c-0.23,0.99-0.01,2,0.61,2.77c0.96,1.21,2.72,1.59,4.13,0.76c0.03-0.02,0.07-0.03,0.1-0.04
			c0.61-0.35,2.04-1.06,3.88-1.3c0.11,0,0.22,0.02,0.29,0.09c0.08,0.07,0.13,0.17,0.13,0.28v12.84c0,0.21,0.17,0.37,0.37,0.37h5.59
			c-0.3-1.51-0.9-2.64-1.16-3.09c-0.02-0.03-0.03-0.06-0.04-0.1c-0.54-0.99-0.65-2.07-0.29-3.14c0.42-1.29,1.53-2.31,2.83-2.6
			c1.2-0.27,2.44,0,3.39,0.76c0.95,0.76,1.49,1.88,1.49,3.09c0,0.67-0.17,1.32-0.51,1.92c-0.01,0.03-0.02,0.06-0.03,0.08
			C21.46,24.42,20.91,25.51,20.63,26.95z"/>
	</g>
</g>
</svg>
