<?xml version="1.0" encoding="utf-8"?>
<!-- Generator: Adobe Illustrator 24.1.2, SVG Export Plug-In . SVG Version: 6.00 Build 0)  -->
<svg version="1.1" id="Layer_1" xmlns="http://www.w3.org/2000/svg" xmlns:xlink="http://www.w3.org/1999/xlink" x="0px" y="0px"
	 viewBox="0 0 38.69 38.69" style="enable-background:new 0 0 38.69 38.69;" xml:space="preserve">
<style type="text/css">
	.st0{fill:#ED1C24;}
</style>
<g>
	<g>
		<path class="st0" d="M28.11,26.49c-0.02,0-0.05,0-0.07-0.01l-16.5-2.51c-0.2-0.03-0.36-0.18-0.39-0.38l-1.28-7.31
			c-0.03-0.19,0.06-0.39,0.23-0.48l14.59-8.47c0.13-0.08,0.3-0.08,0.43-0.02c0.14,0.06,0.24,0.19,0.26,0.34l3.2,18.28
			c0.03,0.15-0.02,0.3-0.13,0.41C28.36,26.44,28.23,26.49,28.11,26.49z M12.01,23.1l15.53,2.36L24.57,8.48l-13.72,7.97L12.01,23.1z"
			/>
	</g>
	<g>
		<path class="st0" d="M5.72,25.11c-0.48,0-0.94-0.15-1.34-0.43c-0.51-0.36-0.85-0.9-0.96-1.51l-0.65-3.74
			c-0.22-1.27,0.63-2.49,1.9-2.71l5.58-0.98c0.12-0.02,0.25,0.01,0.35,0.08c0.1,0.07,0.17,0.18,0.19,0.3l1.3,7.43
			c0.05,0.25-0.13,0.5-0.38,0.54l-5.58,0.98l0,0C5.99,25.09,5.85,25.11,5.72,25.11z M6.04,24.61h0.01H6.04z M9.95,16.75l-5.12,0.9
			c-0.37,0.06-0.69,0.27-0.91,0.58c-0.22,0.31-0.3,0.68-0.23,1.05l0.65,3.74c0.06,0.37,0.27,0.69,0.58,0.91
			c0.31,0.22,0.68,0.3,1.05,0.23l5.12-0.9L9.95,16.75z"/>
	</g>
	<g>
		<path class="st0" d="M9.11,30.53c-0.18,0-0.34-0.1-0.42-0.26l-2.73-5.51c-0.07-0.13-0.07-0.29,0-0.42
			c0.07-0.13,0.19-0.22,0.34-0.25l2.9-0.51c0.19-0.05,0.41,0.07,0.5,0.25l2.73,5.51c0.07,0.13,0.07,0.29,0,0.42
			c-0.07,0.13-0.19,0.22-0.34,0.25l-2.9,0.51C9.17,30.52,9.14,30.53,9.11,30.53z M7.08,24.9l2.29,4.63l1.94-0.34l-2.29-4.63
			L7.08,24.9z"/>
	</g>
	<g>
		<path class="st0" d="M10.41,30.1c-0.17,0-0.34-0.1-0.42-0.26l-1.98-3.97c-0.12-0.23-0.02-0.51,0.21-0.63
			c0.23-0.11,0.51-0.02,0.63,0.21l1.98,3.97c0.12,0.23,0.02,0.51-0.21,0.63C10.55,30.09,10.48,30.1,10.41,30.1z"/>
	</g>
	<g>
		<path class="st0" d="M5.91,21.61c-0.22,0-0.42-0.16-0.46-0.39l-0.32-1.83c-0.05-0.25,0.12-0.5,0.38-0.54
			c0.27-0.06,0.5,0.12,0.54,0.38l0.32,1.83c0.05,0.25-0.12,0.5-0.38,0.54C5.96,21.61,5.93,21.61,5.91,21.61z"/>
	</g>
	<g>
		<path class="st0" d="M7.85,20.62c-0.22,0-0.42-0.16-0.46-0.39L7.07,18.4c-0.05-0.25,0.13-0.5,0.38-0.54
			c0.26-0.06,0.5,0.13,0.54,0.38l0.32,1.83c0.05,0.25-0.13,0.5-0.38,0.54C7.9,20.62,7.88,20.62,7.85,20.62z"/>
	</g>
	<g>
		<path class="st0" d="M12.9,17.84c-0.17,0-0.33-0.09-0.41-0.25c-0.12-0.23-0.03-0.51,0.19-0.63l6.56-3.49
			c0.23-0.12,0.51-0.04,0.63,0.19c0.12,0.23,0.03,0.51-0.19,0.63l-6.56,3.49C13.05,17.82,12.98,17.84,12.9,17.84z"/>
	</g>
	<g>
		<path class="st0" d="M27.97,11.07c-0.1,0-0.19-0.03-0.28-0.09c-0.21-0.15-0.25-0.44-0.1-0.65l1.95-2.68
			c0.15-0.21,0.44-0.25,0.65-0.1c0.21,0.15,0.25,0.44,0.1,0.65l-1.95,2.68C28.26,11,28.12,11.07,27.97,11.07z"/>
	</g>
	<g>
		<path class="st0" d="M32.82,25.22c-0.1,0-0.19-0.03-0.28-0.09l-2.68-1.95c-0.21-0.15-0.25-0.44-0.1-0.65
			c0.15-0.21,0.44-0.25,0.65-0.1l2.68,1.95c0.21,0.15,0.25,0.44,0.1,0.65C33.11,25.15,32.97,25.22,32.82,25.22z"/>
	</g>
	<g>
		<path class="st0" d="M30.59,13.58c-0.14,0-0.27-0.06-0.37-0.18c-0.16-0.2-0.13-0.5,0.07-0.66l3.69-2.95
			c0.21-0.16,0.5-0.13,0.66,0.07c0.16,0.2,0.13,0.5-0.07,0.66l-3.69,2.95C30.8,13.54,30.69,13.58,30.59,13.58z"/>
	</g>
	<g>
		<path class="st0" d="M31.17,16.86c-0.22,0-0.42-0.16-0.46-0.39c-0.05-0.25,0.13-0.5,0.38-0.54l4.08-0.72
			c0.27-0.07,0.5,0.13,0.54,0.38c0.05,0.25-0.13,0.5-0.38,0.54l-4.08,0.72C31.22,16.86,31.19,16.86,31.17,16.86z"/>
	</g>
	<g>
		<path class="st0" d="M36.21,21.64c-0.05,0-0.09-0.01-0.14-0.02l-4.45-1.37c-0.25-0.08-0.39-0.34-0.31-0.59
			c0.08-0.25,0.35-0.37,0.59-0.31l4.45,1.37c0.25,0.08,0.39,0.34,0.31,0.59C36.6,21.51,36.41,21.64,36.21,21.64z"/>
	</g>
</g>
<g>
	<g>
		<path class="st0" d="M28.2,26.58c-0.02,0-0.05,0-0.07-0.01l-16.5-2.51c-0.2-0.03-0.36-0.18-0.39-0.38l-1.28-7.31
			c-0.03-0.19,0.06-0.39,0.23-0.48l14.59-8.47c0.13-0.08,0.3-0.08,0.43-0.02c0.14,0.06,0.24,0.19,0.26,0.34l3.2,18.28
			c0.03,0.15-0.02,0.3-0.13,0.41C28.44,26.53,28.32,26.58,28.2,26.58z M12.09,23.19l15.53,2.36L24.65,8.57l-13.72,7.97L12.09,23.19z
			"/>
	</g>
	<g>
		<path class="st0" d="M5.8,25.19c-0.48,0-0.94-0.15-1.34-0.43c-0.51-0.36-0.85-0.9-0.96-1.51l-0.65-3.74
			c-0.22-1.27,0.63-2.49,1.9-2.71l5.58-0.98c0.12-0.02,0.25,0.01,0.35,0.08c0.1,0.07,0.17,0.18,0.19,0.3l1.3,7.43
			c0.05,0.25-0.13,0.5-0.38,0.54l-5.58,0.98l0,0C6.07,25.18,5.94,25.19,5.8,25.19z M6.13,24.7h0.01H6.13z M10.03,16.83l-5.12,0.9
			C4.54,17.79,4.22,18,4,18.31c-0.22,0.31-0.3,0.68-0.23,1.05l0.65,3.74C4.49,23.46,4.69,23.78,5,24c0.31,0.22,0.68,0.3,1.05,0.23
			l5.12-0.9L10.03,16.83z"/>
	</g>
	<g>
		<path class="st0" d="M9.2,30.61c-0.18,0-0.34-0.1-0.42-0.26l-2.73-5.51c-0.07-0.13-0.07-0.29,0-0.42
			c0.07-0.13,0.19-0.22,0.34-0.25l2.9-0.51c0.19-0.05,0.41,0.07,0.5,0.25l2.73,5.51c0.07,0.13,0.07,0.29,0,0.42
			c-0.07,0.13-0.19,0.22-0.34,0.25l-2.9,0.51C9.25,30.61,9.23,30.61,9.2,30.61z M7.17,24.99l2.29,4.63l1.94-0.34l-2.29-4.63
			L7.17,24.99z"/>
	</g>
	<g>
		<path class="st0" d="M10.5,30.19c-0.17,0-0.34-0.1-0.42-0.26L8.1,25.96c-0.12-0.23-0.02-0.51,0.21-0.63
			c0.23-0.11,0.51-0.02,0.63,0.21l1.98,3.97c0.12,0.23,0.02,0.51-0.21,0.63C10.64,30.17,10.57,30.19,10.5,30.19z"/>
	</g>
	<g>
		<path class="st0" d="M5.99,21.7c-0.22,0-0.42-0.16-0.46-0.39l-0.32-1.83c-0.05-0.25,0.12-0.5,0.38-0.54
			c0.27-0.06,0.5,0.12,0.54,0.38l0.32,1.83c0.05,0.25-0.12,0.5-0.38,0.54C6.05,21.7,6.02,21.7,5.99,21.7z"/>
	</g>
	<g>
		<path class="st0" d="M7.94,20.7c-0.22,0-0.42-0.16-0.46-0.39l-0.32-1.83c-0.05-0.25,0.13-0.5,0.38-0.54
			c0.26-0.06,0.5,0.13,0.54,0.38l0.32,1.83c0.05,0.25-0.13,0.5-0.38,0.54C7.99,20.7,7.96,20.7,7.94,20.7z"/>
	</g>
	<g>
		<path class="st0" d="M12.99,17.92c-0.17,0-0.33-0.09-0.41-0.25c-0.12-0.23-0.03-0.51,0.19-0.63l6.56-3.49
			c0.23-0.12,0.51-0.04,0.63,0.19c0.12,0.23,0.03,0.51-0.19,0.63l-6.56,3.49C13.14,17.91,13.06,17.92,12.99,17.92z"/>
	</g>
	<g>
		<path class="st0" d="M28.06,11.16c-0.1,0-0.19-0.03-0.28-0.09c-0.21-0.15-0.25-0.44-0.1-0.65l1.95-2.68
			c0.15-0.21,0.44-0.25,0.65-0.1c0.21,0.15,0.25,0.44,0.1,0.65l-1.95,2.68C28.35,11.09,28.2,11.16,28.06,11.16z"/>
	</g>
	<g>
		<path class="st0" d="M32.91,25.31c-0.1,0-0.19-0.03-0.28-0.09l-2.68-1.95c-0.21-0.15-0.25-0.44-0.1-0.65
			c0.15-0.21,0.44-0.25,0.65-0.1l2.68,1.95c0.21,0.15,0.25,0.44,0.1,0.65C33.2,25.24,33.05,25.31,32.91,25.31z"/>
	</g>
	<g>
		<path class="st0" d="M30.68,13.66c-0.14,0-0.27-0.06-0.37-0.18c-0.16-0.2-0.13-0.5,0.07-0.66l3.69-2.95
			c0.21-0.16,0.5-0.13,0.66,0.07c0.16,0.2,0.13,0.5-0.07,0.66l-3.69,2.95C30.88,13.63,30.78,13.66,30.68,13.66z"/>
	</g>
	<g>
		<path class="st0" d="M31.25,16.94c-0.22,0-0.42-0.16-0.46-0.39c-0.05-0.25,0.13-0.5,0.38-0.54l4.08-0.72
			c0.27-0.07,0.5,0.13,0.54,0.38c0.05,0.25-0.13,0.5-0.38,0.54l-4.08,0.72C31.31,16.94,31.28,16.94,31.25,16.94z"/>
	</g>
	<g>
		<path class="st0" d="M36.3,21.72c-0.05,0-0.09-0.01-0.14-0.02l-4.45-1.37c-0.25-0.08-0.39-0.34-0.31-0.59
			c0.08-0.25,0.35-0.37,0.59-0.31l4.45,1.37c0.25,0.08,0.39,0.34,0.31,0.59C36.68,21.59,36.5,21.72,36.3,21.72z"/>
	</g>
</g>
</svg>
