<?xml version="1.0" encoding="utf-8"?>
<!-- Generator: Adobe Illustrator 24.1.2, SVG Export Plug-In . SVG Version: 6.00 Build 0)  -->
<svg version="1.1" id="Layer_1" xmlns="http://www.w3.org/2000/svg" xmlns:xlink="http://www.w3.org/1999/xlink" x="0px" y="0px"
	 viewBox="0 0 58 58" style="enable-background:new 0 0 58 58;" xml:space="preserve">
<style type="text/css">
	.st0{fill:none;stroke:#8A9BA3;stroke-width:1.213;stroke-miterlimit:10;}
</style>
<circle class="st0" cx="28.86" cy="28.97" r="27.9"/>
<g>
	<path class="st0" d="M43.25,27.15c3.42-3.42,3.42-8.98,0-12.4c-3.42-3.42-8.98-3.42-12.4,0c-2.97,2.97-3.36,7.54-1.18,10.93
		L14.03,41.32l2.55,2.55l1.19-1.19l1.25,1.25l1.63-1.63l-1.25-1.25l1.4-1.4l2.31,2.31l1.57-1.54l-2.31-2.31l9.83-9.86
		C35.61,30.52,40.25,30.15,43.25,27.15z"/>
	<path class="st0" d="M40.11,24.01c-1.27-1.27-4.43-4.43-6.13-6.13c1.69-1.69,4.43-1.69,6.13,0C41.81,19.58,41.81,22.32,40.11,24.01
		z"/>
</g>
</svg>
