<?xml version="1.0" encoding="utf-8"?>
<!-- Generator: Adobe Illustrator 24.1.2, SVG Export Plug-In . SVG Version: 6.00 Build 0)  -->
<svg version="1.1" id="Layer_1" xmlns="http://www.w3.org/2000/svg" xmlns:xlink="http://www.w3.org/1999/xlink" x="0px" y="0px"
	 viewBox="0 0 38.69 38.69" style="enable-background:new 0 0 38.69 38.69;" xml:space="preserve">
<style type="text/css">
	.st0{fill:#ED1C24;}
</style>
<g>
	<g>
		<path class="st0" d="M24.46,33.4h-9.47v-3.76c0-1.42-0.54-2.73-1.51-3.71c-2.57-2.58-4.24-6.47-4.24-9.91
			c0-5.76,4.69-10.45,10.45-10.45s10.45,4.69,10.45,10.45c0,3.41-1.64,7.28-4.19,9.86c-0.96,0.98-1.49,2.29-1.49,3.69V33.4z
			 M15.65,32.74h8.16v-3.18c0-1.58,0.6-3.05,1.68-4.15c2.43-2.47,4-6.16,4-9.4c0-5.4-4.39-9.79-9.79-9.79S9.9,10.61,9.9,16.01
			c0,3.27,1.59,6.98,4.04,9.45c1.1,1.1,1.7,2.59,1.7,4.18V32.74z"/>
	</g>
	<g>
		<path class="st0" d="M23.09,38.42h-6.78v-5.56h6.78V38.42z M16.96,37.76h5.47v-4.25h-5.47V37.76z"/>
	</g>
	<g>
		<rect x="16.78" y="34.36" class="st0" width="2.59" height="0.66"/>
	</g>
	<g>
		<rect x="16.78" y="35.93" class="st0" width="2.59" height="0.66"/>
	</g>
	<g>
		<rect x="19.33" y="19.79" class="st0" width="0.66" height="13.64"/>
	</g>
	<g>
		<path class="st0" d="M19.73,20.14c-1.32,0-2.59-0.18-3.68-0.53l0.2-0.63c2.11,0.67,5.09,0.65,7.15-0.06l0.22,0.62
			C22.49,19.93,21.14,20.14,19.73,20.14z"/>
	</g>
	<g>
		<path class="st0" d="M19.55,3.46c-0.18,0-0.33-0.15-0.33-0.33V0.67c0-0.18,0.15-0.33,0.33-0.33c0.18,0,0.33,0.15,0.33,0.33v2.46
			C19.88,3.32,19.73,3.46,19.55,3.46z"/>
	</g>
	<g>
		<path class="st0" d="M7.07,18.85H4.61c-0.18,0-0.33-0.15-0.33-0.33c0-0.18,0.15-0.33,0.33-0.33h2.47c0.18,0,0.33,0.15,0.33,0.33
			C7.4,18.7,7.25,18.85,7.07,18.85z"/>
	</g>
	<g>
		<path class="st0" d="M9.23,9.92c-0.08,0-0.17-0.03-0.23-0.1L7.26,8.08c-0.13-0.13-0.13-0.34,0-0.46s0.34-0.13,0.46,0l1.74,1.74
			c0.13,0.13,0.13,0.34,0,0.46C9.4,9.89,9.31,9.92,9.23,9.92z"/>
	</g>
	<g>
		<path class="st0" d="M29.51,9.59c-0.08,0-0.17-0.03-0.23-0.1c-0.13-0.13-0.13-0.34,0-0.46l1.74-1.74c0.13-0.13,0.34-0.13,0.46,0
			s0.13,0.34,0,0.46l-1.74,1.74C29.68,9.56,29.59,9.59,29.51,9.59z"/>
	</g>
	<g>
		<path class="st0" d="M34.15,18.85h-2.46c-0.18,0-0.33-0.15-0.33-0.33c0-0.18,0.15-0.33,0.33-0.33h2.46c0.18,0,0.33,0.15,0.33,0.33
			C34.48,18.7,34.33,18.85,34.15,18.85z"/>
	</g>
</g>
</svg>
