<?xml version="1.0" encoding="utf-8"?>
<!-- Generator: Adobe Illustrator 24.1.1, SVG Export Plug-In . SVG Version: 6.00 Build 0)  -->
<svg version="1.1" xmlns="http://www.w3.org/2000/svg" xmlns:xlink="http://www.w3.org/1999/xlink" x="0px" y="0px"
	 viewBox="0 0 164.07 164.07" style="enable-background:new 0 0 164.07 164.07;" xml:space="preserve">
<style type="text/css">
	.st0{display:none;}
	.st1{display:inline;}
	.st2{fill:#0D4E80;}
	.st3{fill:#ED1C24;}
	.st4{fill:none;stroke:#0D4E80;stroke-width:1.2307;stroke-miterlimit:10;}
</style>
<g id="marketingowe" class="st0">
	<g class="st1">
		<path class="st2" d="M82.41,44.38V21.45c0-0.34-0.28-0.62-0.62-0.62c-0.34,0-0.62,0.28-0.62,0.62v22.94c0.25,0,0.5-0.02,0.75-0.02
			C82.09,44.37,82.25,44.38,82.41,44.38z"/>
		<path class="st2" d="M81.18,120.19v21.63c0,0.34,0.28,0.62,0.62,0.62c0.34,0,0.62-0.28,0.62-0.62V120.2
			c-0.16,0-0.32,0.01-0.49,0.01C81.68,120.21,81.43,120.2,81.18,120.19z"/>
		<path class="st2" d="M21.75,81.02c-0.34,0-0.62,0.28-0.62,0.62c0,0.34,0.28,0.62,0.62,0.62h22.26c0-0.41,0.02-0.82,0.03-1.23
			H21.75z"/>
		<path class="st2" d="M142.11,81.02h-22.29c0.01,0.41,0.03,0.82,0.03,1.23h22.26c0.34,0,0.62-0.28,0.62-0.62
			C142.73,81.3,142.45,81.02,142.11,81.02z"/>
		<path class="st2" d="M108.49,109.34l15.42,15.42c0.12,0.12,0.28,0.18,0.44,0.18c0.16,0,0.31-0.06,0.44-0.18
			c0.24-0.24,0.24-0.63,0-0.87l-15.43-15.43c-0.2,0.21-0.4,0.43-0.61,0.64C108.66,109.18,108.57,109.26,108.49,109.34z"/>
		<path class="st2" d="M55.76,54.87l-16.1-16.1c-0.24-0.24-0.63-0.24-0.87,0c-0.24,0.24-0.24,0.63,0,0.87l16.09,16.09
			c0.08-0.08,0.16-0.17,0.24-0.25C55.33,55.27,55.54,55.07,55.76,54.87z"/>
		<path class="st2" d="M109.04,55.79l15.75-16.15c0.24-0.25,0.23-0.63-0.01-0.87c-0.25-0.24-0.63-0.23-0.87,0.01l-15.75,16.15
			c0.19,0.18,0.39,0.36,0.58,0.55C108.84,55.58,108.94,55.69,109.04,55.79z"/>
		<path class="st2" d="M39.89,124.94c-0.24,0.25-0.23,0.63,0.01,0.87c0.12,0.12,0.28,0.18,0.43,0.18c0.16,0,0.32-0.06,0.44-0.19
			l15.35-15.74c-0.3-0.28-0.6-0.56-0.89-0.85L39.89,124.94z"/>
	</g>
	<g class="st1">
		<path class="st2" d="M81.93,114.81c-8.68,0-16.85-3.38-22.99-9.53c-6.14-6.14-9.53-14.31-9.53-23c0-8.68,3.38-16.85,9.53-22.99
			c6.14-6.14,14.31-9.53,22.99-9.53c8.69,0,16.85,3.38,23,9.53c6.14,6.14,9.53,14.31,9.53,22.99c0,8.69-3.38,16.85-9.53,23l0,0l0,0
			C98.78,111.43,90.61,114.81,81.93,114.81z M81.93,51c-8.36,0-16.22,3.25-22.12,9.17c-5.91,5.91-9.17,13.77-9.17,22.12
			c0,8.36,3.25,16.22,9.17,22.13c5.91,5.91,13.77,9.17,22.12,9.17c8.36,0,16.22-3.25,22.13-9.17l0,0
			c5.91-5.91,9.17-13.77,9.17-22.13c0-8.36-3.25-16.22-9.17-22.12C98.15,54.25,90.29,51,81.93,51z"/>
	</g>
	<g class="st1">
		<path class="st2" d="M15.88,74.74c-0.08,0-0.17-0.02-0.25-0.05c-0.31-0.14-0.45-0.5-0.31-0.81l14.62-32.85
			c0.14-0.31,0.5-0.45,0.81-0.31s0.45,0.5,0.31,0.81L16.44,74.38C16.34,74.6,16.11,74.74,15.88,74.74z"/>
	</g>
	<g class="st1">
		<path class="st2" d="M40.33,30.26c-0.24,0-0.47-0.14-0.57-0.38c-0.13-0.31,0.02-0.67,0.34-0.8l34.09-13.84
			c0.31-0.13,0.67,0.02,0.8,0.34c0.13,0.31-0.02,0.67-0.34,0.8L40.56,30.21C40.49,30.24,40.41,30.26,40.33,30.26z"/>
	</g>
	<g class="st1">
		<path class="st2" d="M122.28,30.26c-0.08,0-0.16-0.01-0.24-0.05L89.2,16.37c-0.31-0.13-0.46-0.49-0.33-0.81
			c0.13-0.31,0.49-0.47,0.81-0.33l32.84,13.84c0.31,0.13,0.46,0.49,0.33,0.81C122.75,30.11,122.52,30.26,122.28,30.26z"/>
	</g>
	<g class="st1">
		<path class="st2" d="M147.74,74.74c-0.25,0-0.49-0.15-0.58-0.4l-12.78-34.92c-0.12-0.32,0.05-0.67,0.37-0.79
			c0.32-0.12,0.67,0.05,0.79,0.37l12.78,34.92c0.12,0.32-0.05,0.67-0.37,0.79C147.88,74.73,147.81,74.74,147.74,74.74z"/>
	</g>
	<g class="st1">
		<path class="st2" d="M30.49,122.61c-0.24,0-0.46-0.14-0.56-0.37L15.31,89.4c-0.14-0.31,0-0.67,0.31-0.81
			c0.31-0.14,0.67,0,0.81,0.31l14.62,32.84c0.14,0.31,0,0.67-0.31,0.81C30.66,122.59,30.58,122.61,30.49,122.61z"/>
	</g>
	<g class="st1">
		<path class="st2" d="M74.42,149.94c-0.08,0-0.16-0.01-0.23-0.05l-35.19-14.39c-0.31-0.13-0.46-0.49-0.34-0.8
			c0.13-0.31,0.48-0.47,0.8-0.34l35.19,14.39c0.31,0.13,0.46,0.49,0.34,0.8C74.89,149.8,74.66,149.94,74.42,149.94z"/>
	</g>
	<g class="st1">
		<path class="st2" d="M89.44,149.94c-0.24,0-0.47-0.14-0.57-0.38c-0.13-0.31,0.01-0.67,0.33-0.81l34.91-14.67
			c0.31-0.13,0.68,0.02,0.81,0.33c0.13,0.31-0.01,0.67-0.33,0.81L89.68,149.9C89.6,149.93,89.52,149.94,89.44,149.94z"/>
	</g>
	<g class="st1">
		<path class="st2" d="M135.72,125.54c-0.07,0-0.15-0.01-0.22-0.04c-0.31-0.12-0.47-0.48-0.35-0.8l13.9-35.78
			c0.12-0.32,0.48-0.47,0.8-0.35c0.31,0.12,0.47,0.48,0.35,0.8l-13.9,35.78C136.2,125.39,135.97,125.54,135.72,125.54z"/>
	</g>
	<g class="st1">
		<path class="st2" d="M81.93,22.07c-2.08,0-4.16-0.79-5.74-2.38c-3.17-3.17-3.17-8.32,0-11.49c3.17-3.17,8.32-3.17,11.49,0
			c3.17,3.17,3.17,8.32,0,11.49l0,0C86.09,21.27,84.01,22.07,81.93,22.07z M81.93,7.05c-1.77,0-3.53,0.67-4.88,2.02
			c-2.69,2.69-2.69,7.06,0,9.75c2.69,2.69,7.07,2.69,9.75,0c2.69-2.69,2.69-7.06,0-9.75C85.46,7.72,83.69,7.05,81.93,7.05z
			 M87.24,19.25h0.01H87.24z"/>
	</g>
	<g class="st1">
		<path class="st2" d="M81.93,157.45c-2.08,0-4.16-0.79-5.74-2.38c-3.17-3.17-3.17-8.32,0-11.49c3.17-3.17,8.32-3.17,11.49,0
			c3.17,3.17,3.17,8.32,0,11.49C86.09,156.66,84.01,157.45,81.93,157.45z M81.93,142.44c-1.77,0-3.53,0.67-4.88,2.02
			c-2.69,2.69-2.69,7.06,0,9.75c2.68,2.68,7.06,2.69,9.75,0c2.69-2.69,2.69-7.06,0-9.75C85.46,143.11,83.69,142.44,81.93,142.44z"/>
	</g>
	<g class="st1">
		<path class="st2" d="M149.62,89.76c-2.08,0-4.16-0.79-5.74-2.38l0,0c-3.17-3.17-3.17-8.32,0-11.49c3.17-3.17,8.33-3.17,11.49,0
			c3.17,3.17,3.17,8.32,0,11.49C153.78,88.97,151.7,89.76,149.62,89.76z M144.75,86.51c2.68,2.68,7.06,2.69,9.75,0
			c2.69-2.69,2.69-7.06,0-9.75s-7.06-2.68-9.75,0C142.06,79.45,142.06,83.82,144.75,86.51L144.75,86.51z"/>
	</g>
	<g class="st1">
		<path class="st2" d="M14.23,89.76c-2.08,0-4.16-0.79-5.74-2.37l0,0c-3.17-3.17-3.17-8.32,0-11.49c3.17-3.17,8.32-3.17,11.49,0
			c3.17,3.17,3.17,8.32,0,11.49C18.4,88.97,16.32,89.76,14.23,89.76z M9.36,86.51c2.69,2.69,7.06,2.69,9.75,0
			c2.69-2.69,2.69-7.06,0-9.75c-2.69-2.68-7.06-2.69-9.75,0C6.67,79.45,6.67,83.82,9.36,86.51L9.36,86.51z"/>
	</g>
	<g class="st1">
		<path class="st2" d="M129.79,137.63c-4.48,0-8.13-3.64-8.13-8.12c0-4.48,3.65-8.13,8.13-8.13s8.12,3.65,8.12,8.13
			C137.92,133.98,134.28,137.63,129.79,137.63z M129.79,122.61c-3.8,0-6.9,3.09-6.9,6.9c0,3.8,3.09,6.89,6.9,6.89
			c3.8,0,6.89-3.09,6.89-6.89C136.69,125.7,133.6,122.61,129.79,122.61z"/>
	</g>
	<g class="st1">
		<path class="st2" d="M34.06,41.89c-4.48,0-8.13-3.64-8.13-8.12s3.65-8.13,8.13-8.13s8.12,3.65,8.12,8.13S38.54,41.89,34.06,41.89z
			 M34.06,26.87c-3.8,0-6.9,3.09-6.9,6.9c0,3.8,3.09,6.89,6.9,6.89c3.8,0,6.89-3.09,6.89-6.89C40.96,29.97,37.86,26.87,34.06,26.87z
			"/>
	</g>
	<g class="st1">
		<path class="st2" d="M129.79,41.89c-4.48,0-8.13-3.64-8.13-8.12s3.65-8.13,8.13-8.13s8.12,3.65,8.12,8.13
			S134.28,41.89,129.79,41.89z M129.79,26.87c-3.8,0-6.9,3.09-6.9,6.9c0,3.8,3.09,6.89,6.9,6.89c3.8,0,6.89-3.09,6.89-6.89
			C136.69,29.97,133.6,26.87,129.79,26.87z"/>
	</g>
	<g class="st1">
		<path class="st2" d="M34.06,137.63c-4.48,0-8.13-3.64-8.13-8.12c0-4.48,3.65-8.13,8.13-8.13s8.12,3.65,8.12,8.13
			C42.19,133.98,38.54,137.63,34.06,137.63z M34.06,122.61c-3.8,0-6.9,3.09-6.9,6.9c0,3.8,3.09,6.89,6.9,6.89
			c3.8,0,6.89-3.09,6.89-6.89C40.96,125.7,37.86,122.61,34.06,122.61z"/>
	</g>
	<g class="st1">
		<g>
			<path class="st3" d="M93.03,92.23c-0.03,0-0.06,0-0.09-0.01l-21.68-3.29c-0.26-0.04-0.47-0.24-0.51-0.5l-1.68-9.6
				c-0.05-0.25,0.07-0.51,0.3-0.64l19.16-11.13c0.18-0.1,0.39-0.11,0.57-0.03c0.18,0.08,0.31,0.25,0.35,0.45l4.2,24.02
				c0.03,0.19-0.03,0.39-0.17,0.54C93.35,92.17,93.19,92.23,93.03,92.23z M71.88,87.78l20.4,3.1l-3.9-22.31L70.35,79.04L71.88,87.78
				z"/>
		</g>
		<g>
			<path class="st3" d="M63.61,90.42c-0.63,0-1.24-0.19-1.76-0.56c-0.67-0.47-1.12-1.18-1.26-1.99l-0.86-4.91
				c-0.29-1.67,0.83-3.27,2.5-3.56l7.33-1.28c0.16-0.03,0.32,0.01,0.46,0.1c0.13,0.1,0.22,0.24,0.25,0.4l1.71,9.76
				c0.06,0.33-0.17,0.65-0.5,0.71l-7.33,1.28l0,0C63.97,90.4,63.79,90.42,63.61,90.42z M64.04,89.76h0.01H64.04z M69.17,79.43
				l-6.73,1.18c-0.49,0.08-0.91,0.35-1.19,0.76c-0.28,0.4-0.39,0.89-0.31,1.38l0.86,4.91c0.08,0.49,0.35,0.91,0.76,1.19
				c0.4,0.28,0.89,0.39,1.38,0.31l6.73-1.18L69.17,79.43z"/>
		</g>
		<g>
			<path class="st3" d="M68.07,97.54c-0.23,0-0.45-0.13-0.55-0.34l-3.58-7.24c-0.09-0.18-0.09-0.38,0-0.55
				c0.09-0.17,0.25-0.29,0.44-0.33l3.81-0.67c0.25-0.07,0.53,0.09,0.66,0.33l3.58,7.24c0.09,0.18,0.09,0.38,0,0.55
				c-0.09,0.17-0.25,0.29-0.44,0.33l-3.81,0.67C68.14,97.53,68.11,97.54,68.07,97.54z M65.4,90.15l3.01,6.09l2.55-0.44l-3.01-6.09
				L65.4,90.15z"/>
		</g>
		<g>
			<path class="st3" d="M69.78,96.98c-0.23,0-0.44-0.12-0.55-0.34l-2.6-5.22c-0.15-0.3-0.03-0.67,0.28-0.82
				c0.3-0.14,0.67-0.03,0.82,0.28l2.6,5.22c0.15,0.3,0.03,0.67-0.28,0.82C69.97,96.96,69.87,96.98,69.78,96.98z"/>
		</g>
		<g>
			<path class="st3" d="M63.86,85.82c-0.29,0-0.55-0.21-0.61-0.51l-0.42-2.41c-0.06-0.33,0.16-0.65,0.5-0.71
				c0.35-0.08,0.65,0.16,0.71,0.5l0.42,2.41c0.06,0.33-0.16,0.65-0.5,0.71C63.93,85.82,63.9,85.82,63.86,85.82z"/>
		</g>
		<g>
			<path class="st3" d="M66.41,84.52c-0.29,0-0.55-0.21-0.61-0.51l-0.42-2.41c-0.06-0.33,0.17-0.65,0.5-0.71
				c0.34-0.08,0.65,0.17,0.71,0.5l0.42,2.41c0.06,0.33-0.17,0.65-0.5,0.71C66.48,84.51,66.45,84.52,66.41,84.52z"/>
		</g>
		<g>
			<path class="st3" d="M73.05,80.87c-0.22,0-0.43-0.12-0.54-0.33c-0.16-0.3-0.05-0.67,0.25-0.83l8.62-4.58
				c0.3-0.15,0.67-0.05,0.83,0.25c0.16,0.3,0.05,0.67-0.25,0.83l-8.62,4.58C73.25,80.84,73.15,80.87,73.05,80.87z"/>
		</g>
		<g>
			<path class="st3" d="M92.85,71.98c-0.12,0-0.25-0.04-0.36-0.12c-0.27-0.2-0.33-0.58-0.13-0.86l2.56-3.52
				c0.2-0.27,0.58-0.33,0.86-0.13c0.27,0.2,0.33,0.58,0.13,0.86l-2.56,3.52C93.23,71.89,93.04,71.98,92.85,71.98z"/>
		</g>
		<g>
			<path class="st3" d="M99.22,90.57c-0.12,0-0.25-0.04-0.36-0.12l-3.52-2.56c-0.27-0.2-0.33-0.58-0.13-0.86
				c0.2-0.27,0.58-0.33,0.86-0.13l3.52,2.56c0.27,0.2,0.33,0.58,0.13,0.86C99.6,90.48,99.41,90.57,99.22,90.57z"/>
		</g>
		<g>
			<path class="st3" d="M96.29,75.27c-0.18,0-0.36-0.08-0.48-0.23c-0.21-0.27-0.17-0.65,0.1-0.87l4.85-3.87
				c0.27-0.21,0.66-0.17,0.87,0.1c0.21,0.27,0.17,0.65-0.1,0.87l-4.85,3.87C96.56,75.22,96.43,75.27,96.29,75.27z"/>
		</g>
		<g>
			<path class="st3" d="M97.05,79.58c-0.29,0-0.55-0.21-0.61-0.51c-0.06-0.33,0.17-0.65,0.5-0.71l5.37-0.94
				c0.35-0.09,0.65,0.17,0.71,0.5c0.06,0.33-0.17,0.65-0.5,0.71l-5.37,0.94C97.12,79.57,97.08,79.58,97.05,79.58z"/>
		</g>
		<g>
			<path class="st3" d="M103.67,85.86c-0.06,0-0.12-0.01-0.18-0.03l-5.84-1.8c-0.32-0.1-0.51-0.44-0.41-0.77
				c0.1-0.32,0.45-0.49,0.77-0.41l5.84,1.8c0.32,0.1,0.51,0.44,0.41,0.77C104.18,85.68,103.94,85.86,103.67,85.86z"/>
		</g>
	</g>
</g>
<g id="wsparcie-zespolu">
	<g>
		<g>
			<g>
				<g>
					<path class="st2" d="M112.22,72.93c-0.34,0-0.62-0.28-0.62-0.62v-7.44l-8.06-11.78c-0.07-0.1-0.11-0.22-0.11-0.35V45.1
						c0-0.34,0.28-0.62,0.62-0.62h5.98V20.49c0-1.1,0.89-1.99,1.99-1.99h4.72c1.1,0,1.99,0.89,1.99,1.99V31.6
						c0,0.34-0.28,0.62-0.62,0.62c-0.34,0-0.62-0.28-0.62-0.62V20.49c0-0.42-0.34-0.76-0.76-0.76h-4.72c-0.42,0-0.76,0.34-0.76,0.76
						V45.1c0,0.34-0.28,0.62-0.62,0.62h-5.98v6.85l8.06,11.78c0.07,0.1,0.11,0.22,0.11,0.35v7.63
						C112.84,72.66,112.56,72.93,112.22,72.93z"/>
				</g>
				<g>
					<path class="st2" d="M135.19,72.93c-0.34,0-0.62-0.28-0.62-0.62V65.6c0-0.1,0.02-0.19,0.07-0.28l4.47-8.82V24.41
						c0-0.34-0.28-0.62-0.62-0.62h-4.24v2.12c0,0.34-0.28,0.62-0.62,0.62c-0.34,0-0.62-0.28-0.62-0.62v-2.73
						c0-0.34,0.28-0.62,0.62-0.62h4.86c1.02,0,1.85,0.83,1.85,1.86v32.24c0,0.1-0.02,0.19-0.07,0.28l-4.47,8.82v6.57
						C135.81,72.66,135.53,72.93,135.19,72.93z"/>
				</g>
				<g>
					<path class="st2" d="M125.84,32.35c-0.34,0-0.62-0.28-0.62-0.62v-9.28c0-0.41-0.34-0.75-0.75-0.75h-6.37
						c-0.34,0-0.62-0.28-0.62-0.62s0.28-0.62,0.62-0.62h6.37c1.09,0,1.98,0.89,1.98,1.98v9.28
						C126.46,32.07,126.18,32.35,125.84,32.35z"/>
				</g>
				<g>
					<path class="st2" d="M133.63,32.35c-0.34,0-0.62-0.28-0.62-0.62v-8.95c0-0.41-0.33-0.74-0.74-0.74h-5.81v2.53
						c0,0.34-0.28,0.62-0.62,0.62c-0.34,0-0.62-0.28-0.62-0.62v-3.15c0-0.34,0.28-0.62,0.62-0.62h6.43c1.09,0,1.97,0.88,1.97,1.97
						v8.95C134.25,32.07,133.97,32.35,133.63,32.35z"/>
				</g>
			</g>
			<g>
				<path class="st2" d="M139.73,107.53c-0.34,0-0.62-0.28-0.62-0.62V76.66h-32.08c-0.34,0-0.62-0.28-0.62-0.62s0.28-0.62,0.62-0.62
					h32.69c0.34,0,0.62,0.28,0.62,0.62v30.87C140.35,107.25,140.07,107.53,139.73,107.53z"/>
			</g>
		</g>
		<g>
			<g>
				<g>
					<path class="st2" d="M53.74,59.1h-7.66c-0.34,0-0.62-0.28-0.62-0.62v-5.98H21.48c-1.1,0-1.99-0.89-1.99-1.99V45.8
						c0-1.1,0.89-1.99,1.99-1.99h11.11c0.34,0,0.62,0.28,0.62,0.62c0,0.34-0.28,0.62-0.62,0.62H21.48c-0.42,0-0.76,0.34-0.76,0.76
						v4.72c0,0.42,0.34,0.76,0.76,0.76h24.61c0.34,0,0.62,0.28,0.62,0.62v5.98h6.85l11.78-8.07c0.1-0.07,0.22-0.11,0.35-0.11h7.63
						c0.34,0,0.62,0.28,0.62,0.62c0,0.34-0.28,0.62-0.62,0.62h-7.44L54.09,59C53.99,59.07,53.87,59.1,53.74,59.1z"/>
				</g>
				<g>
					<path class="st2" d="M26.89,29.52h-2.73c-0.34,0-0.62-0.28-0.62-0.62v-4.86c0-1.02,0.83-1.86,1.86-1.86h32.24
						c0.1,0,0.19,0.02,0.28,0.07l8.82,4.48h6.57c0.34,0,0.62,0.28,0.62,0.62s-0.28,0.62-0.62,0.62h-6.72c-0.1,0-0.19-0.02-0.28-0.07
						l-8.82-4.48H25.4c-0.34,0-0.62,0.28-0.62,0.62v4.24h2.11c0.34,0,0.62,0.28,0.62,0.62C27.5,29.25,27.23,29.52,26.89,29.52z"/>
				</g>
				<g>
					<path class="st2" d="M22.08,45.04c-0.34,0-0.62-0.28-0.62-0.62v-6.37c0-1.09,0.89-1.98,1.98-1.98h9.28
						c0.34,0,0.62,0.28,0.62,0.62c0,0.34-0.28,0.62-0.62,0.62h-9.28c-0.41,0-0.75,0.34-0.75,0.75v6.37
						C22.7,44.77,22.42,45.04,22.08,45.04z"/>
				</g>
				<g>
					<path class="st2" d="M25.56,37.3h-3.15c-0.34,0-0.62-0.28-0.62-0.62v-6.43c0-1.09,0.88-1.97,1.97-1.97h8.95
						c0.34,0,0.62,0.28,0.62,0.62c0,0.34-0.28,0.62-0.62,0.62h-8.95c-0.41,0-0.74,0.33-0.74,0.74v5.81h2.53
						c0.34,0,0.62,0.28,0.62,0.62C26.18,37.03,25.9,37.3,25.56,37.3z"/>
				</g>
			</g>
			<g>
				<path class="st2" d="M77.03,56.12c-0.34,0-0.62-0.28-0.62-0.62V24.03c0-0.34,0.28-0.62,0.62-0.62h30.87
					c0.34,0,0.62,0.28,0.62,0.62s-0.28,0.62-0.62,0.62H77.65V55.5C77.65,55.84,77.37,56.12,77.03,56.12z"/>
			</g>
		</g>
		<g>
			<g>
				<g>
					<path class="st2" d="M52.17,146.56h-4.72c-1.1,0-1.99-0.89-1.99-1.99v-11.11c0-0.34,0.28-0.62,0.62-0.62
						c0.34,0,0.62,0.28,0.62,0.62v11.11c0,0.42,0.34,0.76,0.76,0.76h4.72c0.42,0,0.76-0.34,0.76-0.76v-24.6
						c0-0.34,0.28-0.62,0.62-0.62h5.98v-6.85l-8.06-11.78c-0.07-0.1-0.11-0.22-0.11-0.35v-7.63c0-0.34,0.28-0.62,0.62-0.62
						c0.34,0,0.62,0.28,0.62,0.62v7.44l8.06,11.78c0.07,0.1,0.11,0.22,0.11,0.35v7.66c0,0.34-0.28,0.62-0.62,0.62h-5.98v23.99
						C54.16,145.66,53.27,146.56,52.17,146.56z"/>
				</g>
				<g>
					<path class="st2" d="M30.56,142.5H25.7c-1.02,0-1.85-0.83-1.85-1.86v-32.24c0-0.1,0.02-0.19,0.07-0.28l4.47-8.82v-6.57
						c0-0.34,0.28-0.62,0.62-0.62s0.62,0.28,0.62,0.62v6.72c0,0.1-0.02,0.19-0.07,0.28l-4.47,8.82v32.09c0,0.34,0.28,0.62,0.62,0.62
						h4.24v-2.11c0-0.34,0.28-0.62,0.62-0.62c0.34,0,0.62,0.28,0.62,0.62v2.73C31.17,142.22,30.9,142.5,30.56,142.5z"/>
				</g>
				<g>
					<path class="st2" d="M46.08,144.58h-6.37c-1.09,0-1.98-0.89-1.98-1.98v-9.28c0-0.34,0.28-0.62,0.62-0.62
						c0.34,0,0.62,0.28,0.62,0.62v9.28c0,0.41,0.34,0.75,0.75,0.75h6.37c0.34,0,0.62,0.28,0.62,0.62
						C46.7,144.3,46.42,144.58,46.08,144.58z"/>
				</g>
				<g>
					<path class="st2" d="M38.34,144.24h-6.43c-1.09,0-1.97-0.88-1.97-1.97v-8.95c0-0.34,0.28-0.62,0.62-0.62
						c0.34,0,0.62,0.28,0.62,0.62v8.95c0,0.41,0.33,0.74,0.74,0.74h5.81v-2.53c0-0.34,0.28-0.62,0.62-0.62
						c0.34,0,0.62,0.28,0.62,0.62v3.14C38.96,143.97,38.68,144.24,38.34,144.24z"/>
				</g>
			</g>
			<g>
				<path class="st2" d="M57.15,89.63H24.46c-0.34,0-0.62-0.28-0.62-0.62V58.14c0-0.34,0.28-0.62,0.62-0.62
					c0.34,0,0.62,0.28,0.62,0.62V88.4h32.08c0.34,0,0.62,0.28,0.62,0.62C57.77,89.35,57.49,89.63,57.15,89.63z"/>
			</g>
		</g>
		<g>
			<g>
				<g>
					<path class="st2" d="M143.04,120.18h-11.11c-0.34,0-0.62-0.28-0.62-0.62s0.28-0.62,0.62-0.62h11.11c0.42,0,0.76-0.34,0.76-0.76
						v-4.72c0-0.42-0.34-0.76-0.76-0.76h-24.6c-0.34,0-0.62-0.28-0.62-0.62v-5.98h-6.85l-11.78,8.07c-0.1,0.07-0.22,0.11-0.35,0.11
						h-7.63c-0.34,0-0.62-0.28-0.62-0.62s0.28-0.62,0.62-0.62h7.44l11.78-8.07c0.1-0.07,0.22-0.11,0.35-0.11h7.66
						c0.34,0,0.62,0.28,0.62,0.62v5.98h23.99c1.1,0,1.99,0.89,1.99,1.99v4.72C145.04,119.28,144.14,120.18,143.04,120.18z"/>
				</g>
				<g>
					<path class="st2" d="M139.13,141.8h-32.24c-0.1,0-0.19-0.02-0.28-0.07l-8.82-4.48h-6.57c-0.34,0-0.62-0.28-0.62-0.62
						s0.28-0.62,0.62-0.62h6.72c0.1,0,0.19,0.02,0.28,0.07l8.82,4.48h32.09c0.34,0,0.62-0.28,0.62-0.62v-4.24h-2.11
						c-0.34,0-0.62-0.28-0.62-0.62c0-0.34,0.28-0.62,0.62-0.62h2.73c0.34,0,0.62,0.28,0.62,0.62v4.86
						C140.98,140.96,140.15,141.8,139.13,141.8z"/>
				</g>
				<g>
					<path class="st2" d="M141.07,127.91h-9.27c-0.34,0-0.62-0.28-0.62-0.62c0-0.34,0.28-0.62,0.62-0.62h9.27
						c0.41,0,0.75-0.34,0.75-0.75v-6.37c0-0.34,0.28-0.62,0.62-0.62s0.62,0.28,0.62,0.62v6.37
						C143.06,127.02,142.17,127.91,141.07,127.91z"/>
				</g>
				<g>
					<path class="st2" d="M140.75,135.7h-8.95c-0.34,0-0.62-0.28-0.62-0.62c0-0.34,0.28-0.62,0.62-0.62h8.95
						c0.41,0,0.75-0.33,0.75-0.74v-5.81h-2.53c-0.34,0-0.62-0.28-0.62-0.62c0-0.34,0.28-0.62,0.62-0.62h3.15
						c0.34,0,0.62,0.28,0.62,0.62v6.43C142.72,134.81,141.84,135.7,140.75,135.7z"/>
				</g>
			</g>
			<g>
				<path class="st2" d="M87.49,141.8H56.62c-0.34,0-0.62-0.28-0.62-0.62c0-0.34,0.28-0.62,0.62-0.62h30.26v-32.08
					c0-0.34,0.28-0.62,0.62-0.62s0.62,0.28,0.62,0.62v32.7C88.11,141.52,87.83,141.8,87.49,141.8z"/>
			</g>
		</g>
		<g>
			<path class="st2" d="M155.65,24.64H140.5c-0.34,0-0.62-0.28-0.62-0.62s0.28-0.62,0.62-0.62h15.16c0.34,0,0.62,0.28,0.62,0.62
				S155.99,24.64,155.65,24.64z"/>
		</g>
		<g>
			<path class="st2" d="M139.73,155.56c-0.34,0-0.62-0.28-0.62-0.62v-13.43c0-0.34,0.28-0.62,0.62-0.62c0.34,0,0.62,0.28,0.62,0.62
				v13.43C140.35,155.29,140.07,155.56,139.73,155.56z"/>
		</g>
		<g>
			<path class="st2" d="M24.46,141.8H9.59c-0.34,0-0.62-0.28-0.62-0.62c0-0.34,0.28-0.62,0.62-0.62h14.87
				c0.34,0,0.62,0.28,0.62,0.62C25.08,141.52,24.8,141.8,24.46,141.8z"/>
		</g>
		<g>
			<path class="st2" d="M24.46,23.42c-0.34,0-0.62-0.28-0.62-0.62V9.63c0-0.34,0.28-0.62,0.62-0.62c0.34,0,0.62,0.28,0.62,0.62
				v13.17C25.08,23.14,24.8,23.42,24.46,23.42z"/>
		</g>
		<g>
			<path class="st2" d="M155.65,57.26h-15.92c-0.34,0-0.62-0.28-0.62-0.62c0-0.34,0.28-0.62,0.62-0.62h15.92
				c0.34,0,0.62,0.28,0.62,0.62C156.27,56.98,155.99,57.26,155.65,57.26z"/>
		</g>
		<g>
			<path class="st2" d="M107.04,155.56c-0.34,0-0.61-0.27-0.62-0.61l-0.15-13.77c0-0.34,0.27-0.62,0.61-0.62
				c0.31-0.05,0.62,0.27,0.62,0.61l0.15,13.77C107.66,155.28,107.38,155.56,107.04,155.56
				C107.04,155.56,107.04,155.56,107.04,155.56z"/>
		</g>
		<g>
			<path class="st2" d="M24.46,109.02H9.59c-0.34,0-0.62-0.28-0.62-0.62s0.28-0.62,0.62-0.62h14.87c0.34,0,0.62,0.28,0.62,0.62
				S24.8,109.02,24.46,109.02z"/>
		</g>
		<g>
			<path class="st2" d="M57.63,23.42c-0.34,0-0.62-0.28-0.62-0.62V9.63c0-0.34,0.28-0.62,0.62-0.62c0.34,0,0.62,0.28,0.62,0.62
				v13.17C58.25,23.14,57.97,23.42,57.63,23.42z"/>
		</g>
		<g>
			<g>
				<path class="st3" d="M99.19,103.1H79c-0.18,0-0.35-0.08-0.47-0.21c-0.12-0.14-0.17-0.32-0.14-0.5c0.43-2.81,1.48-4.99,2.12-6.1
					c0.01-0.05,0.03-0.1,0.06-0.14c0.5-0.85,0.75-1.75,0.75-2.69c0-1.63-0.73-3.14-2-4.16c-1.27-1.02-2.94-1.39-4.57-1.01
					c-1.73,0.39-3.21,1.76-3.78,3.49c-0.62,1.87-0.09,3.4,0.47,4.35c0.03,0.05,0.05,0.1,0.06,0.16c0.64,1.12,1.68,3.29,2.12,6.1
					c0.03,0.18-0.02,0.36-0.14,0.5c-0.12,0.13-0.29,0.21-0.47,0.21h-9.98c-1.02,0-1.85-0.83-1.85-1.85V80.72
					c-2.65,0.48-4.65,1.53-5.42,1.98c-0.06,0.03-0.11,0.06-0.17,0.07c-2.81,1.55-6.32,0.77-8.25-1.65c-1.25-1.57-1.7-3.62-1.24-5.62
					c0.49-2.15,2.19-3.98,4.32-4.67c2.24-0.72,4.06-0.13,5.23,0.53c0.05,0.01,0.09,0.03,0.13,0.06c0.78,0.45,2.77,1.49,5.4,1.97
					V62.86c0-1.33,1.08-2.41,2.4-2.41h17.14c0.18,0,0.35,0.08,0.47,0.21c0.12,0.13,0.17,0.31,0.14,0.49
					c-0.43,2.87-1.49,5.06-2.13,6.18c-0.01,0.05-0.03,0.1-0.06,0.14c-0.5,0.85-0.75,1.75-0.75,2.69c0,1.63,0.73,3.15,2.01,4.16
					c1.28,1.01,2.95,1.37,4.58,1c1.73-0.4,3.21-1.78,3.77-3.51c0.61-1.87,0.08-3.38-0.47-4.32c-0.03-0.05-0.05-0.11-0.07-0.17
					c-0.65-1.14-1.7-3.33-2.12-6.18c-0.03-0.18,0.02-0.36,0.14-0.49c0.12-0.14,0.29-0.21,0.47-0.21H99.4c1.26,0,2.28,1.02,2.28,2.28
					v23.29c2.47-0.51,4.33-1.49,5.06-1.92c0.06-0.03,0.11-0.06,0.18-0.07c1.62-0.89,3.41-1.07,5.18-0.49c0,0,0,0,0,0
					c2.13,0.7,3.82,2.53,4.31,4.67c0.46,2,0,4.05-1.25,5.62c-1.94,2.44-5.49,3.2-8.3,1.62c-0.05-0.01-0.09-0.03-0.14-0.06
					c-0.9-0.52-2.68-1.42-5.04-1.9v7.11C101.68,101.99,100.56,103.1,99.19,103.1z M79.73,101.87h19.46c0.69,0,1.25-0.56,1.25-1.25
					v-7.85c0-0.18,0.08-0.35,0.22-0.47c0.13-0.12,0.32-0.16,0.5-0.14c2.79,0.44,4.94,1.48,6.05,2.11c0.05,0.01,0.1,0.03,0.14,0.06
					c2.32,1.37,5.24,0.75,6.85-1.25c1.01-1.28,1.38-2.94,1.01-4.58c-0.39-1.73-1.77-3.21-3.5-3.77l0,0
					c-1.87-0.61-3.39-0.08-4.34,0.47c-0.05,0.03-0.11,0.05-0.17,0.07c-1.12,0.63-3.26,1.67-6.04,2.11c-0.17,0.03-0.36-0.02-0.5-0.14
					c-0.14-0.12-0.22-0.29-0.22-0.47V62.74c0-0.58-0.47-1.05-1.05-1.05H87.42c0.5,2.54,1.5,4.45,1.94,5.19
					c0.03,0.05,0.06,0.11,0.07,0.17c0.89,1.62,1.06,3.4,0.49,5.16c-0.69,2.13-2.52,3.83-4.66,4.33c-2,0.47-4.05,0.01-5.62-1.24
					c-1.57-1.25-2.47-3.12-2.47-5.13c0-1.11,0.29-2.18,0.85-3.18c0.01-0.05,0.03-0.09,0.06-0.14c0.43-0.74,1.43-2.64,1.93-5.17
					H63.58c-0.65,0-1.17,0.53-1.17,1.18v11.24c0,0.18-0.08,0.35-0.21,0.46c-0.13,0.12-0.31,0.17-0.49,0.15
					c-2.97-0.4-5.27-1.5-6.44-2.17c-0.05-0.01-0.09-0.03-0.13-0.06c-0.95-0.56-2.47-1.1-4.35-0.48c-1.73,0.56-3.11,2.04-3.5,3.77
					c-0.38,1.63-0.01,3.3,1,4.58c1.59,2,4.5,2.63,6.83,1.26c0.05-0.03,0.11-0.05,0.17-0.07c1.01-0.58,3.37-1.75,6.42-2.16
					c0.18-0.01,0.36,0.03,0.49,0.15c0.13,0.12,0.21,0.29,0.21,0.46v21.25c0,0.34,0.28,0.62,0.62,0.62h9.25
					c-0.5-2.49-1.49-4.37-1.92-5.11c-0.03-0.05-0.05-0.11-0.07-0.16c-0.9-1.63-1.07-3.43-0.49-5.2c0.7-2.13,2.54-3.82,4.68-4.31
					c1.99-0.45,4.04,0,5.61,1.25c1.57,1.25,2.47,3.12,2.47,5.12c0,1.11-0.29,2.18-0.85,3.18c-0.01,0.05-0.03,0.09-0.06,0.14
					C81.11,97.69,80.21,99.5,79.73,101.87z"/>
			</g>
		</g>
	</g>
</g>
<g id="rozwoj_x5F_dzialanosci" class="st0">
	<g class="st1">
		<g>
			<path class="st2" d="M49.44,52.21c-0.16,0-0.31-0.06-0.44-0.18L29.49,32.51c-0.24-0.24-0.24-0.63,0-0.87
				c0.24-0.24,0.63-0.24,0.87,0l19.51,19.51c0.24,0.24,0.24,0.63,0,0.87C49.75,52.15,49.6,52.21,49.44,52.21z"/>
		</g>
		<g>
			<path class="st2" d="M24.93,34.24c-4.48,0-8.13-3.65-8.13-8.13s3.65-8.12,8.13-8.12s8.12,3.64,8.12,8.12S29.42,34.24,24.93,34.24
				z M24.93,19.22c-3.8,0-6.9,3.09-6.9,6.89c0,3.8,3.09,6.9,6.9,6.9c3.8,0,6.89-3.09,6.89-6.9C31.83,22.32,28.74,19.22,24.93,19.22z
				"/>
		</g>
		<g>
			<path class="st2" d="M44.54,82.43H19.41c-0.34,0-0.62-0.28-0.62-0.62s0.28-0.62,0.62-0.62h25.13c0.34,0,0.62,0.28,0.62,0.62
				S44.88,82.43,44.54,82.43z"/>
		</g>
		<g>
			<path class="st2" d="M11.66,89.25c-2.08,0-4.16-0.79-5.74-2.38c-3.17-3.17-3.17-8.32,0-11.49c3.17-3.17,8.33-3.17,11.49,0
				c3.17,3.17,3.17,8.32,0,11.49C15.83,88.46,13.75,89.25,11.66,89.25z M11.67,74.24c-1.77,0-3.53,0.67-4.88,2.02
				c-2.69,2.69-2.69,7.06,0,9.75c2.68,2.68,7.06,2.69,9.75,0c2.69-2.69,2.69-7.06,0-9.75C15.2,74.91,13.43,74.24,11.67,74.24z"/>
		</g>
		<g>
			<path class="st2" d="M144.98,82.43h-25.13c-0.34,0-0.62-0.28-0.62-0.62s0.28-0.62,0.62-0.62h25.13c0.34,0,0.62,0.28,0.62,0.62
				S145.32,82.43,144.98,82.43z"/>
		</g>
		<g>
			<path class="st2" d="M152.73,89.25c-2.08,0-4.16-0.79-5.74-2.37c-1.54-1.53-2.38-3.57-2.38-5.75c0-2.17,0.85-4.21,2.38-5.74l0,0
				c3.17-3.17,8.32-3.17,11.49,0c3.17,3.17,3.17,8.32,0,11.49C156.89,88.46,154.81,89.25,152.73,89.25z M152.73,74.24
				c-1.76,0-3.53,0.67-4.87,2.02l0,0c-1.3,1.3-2.02,3.03-2.02,4.87c0,1.84,0.72,3.57,2.02,4.88c2.69,2.69,7.06,2.69,9.75,0
				c2.69-2.69,2.69-7.06,0-9.75C156.26,74.91,154.49,74.24,152.73,74.24z M147.42,75.82h0.01H147.42z"/>
		</g>
		<g>
			<path class="st2" d="M117.79,52.21c-0.16,0-0.31-0.06-0.44-0.18c-0.24-0.24-0.24-0.63,0-0.87l19.51-19.51
				c0.24-0.24,0.63-0.24,0.87,0c0.24,0.24,0.24,0.63,0,0.87l-19.51,19.51C118.1,52.15,117.95,52.21,117.79,52.21z"/>
		</g>
		<g>
			<path class="st2" d="M143.74,34.24c-4.48,0-8.12-3.65-8.12-8.13s3.64-8.12,8.12-8.12s8.13,3.64,8.13,8.12
				S148.22,34.24,143.74,34.24z M143.74,19.22c-3.8,0-6.89,3.09-6.89,6.89c0,3.8,3.09,6.9,6.89,6.9c3.8,0,6.9-3.09,6.9-6.9
				C150.63,22.32,147.54,19.22,143.74,19.22z"/>
		</g>
		<g>
			<path class="st2" d="M84.26,38.59c-0.34,0-0.62-0.28-0.62-0.62V19.61c0-0.34,0.28-0.62,0.62-0.62s0.62,0.28,0.62,0.62v18.36
				C84.88,38.32,84.6,38.59,84.26,38.59z"/>
		</g>
		<g>
			<path class="st2" d="M84.95,19.99c-2.08,0-4.16-0.79-5.74-2.37c-3.17-3.17-3.17-8.32,0-11.49c3.17-3.17,8.32-3.17,11.49,0
				c1.54,1.53,2.38,3.57,2.38,5.74s-0.85,4.21-2.38,5.75C89.11,19.2,87.03,19.99,84.95,19.99z M84.95,4.98
				c-1.76,0-3.53,0.67-4.87,2.02c-2.69,2.69-2.69,7.06,0,9.75c2.69,2.69,7.06,2.69,9.75,0c1.3-1.3,2.02-3.04,2.02-4.88
				s-0.72-3.57-2.02-4.87C88.48,5.65,86.71,4.98,84.95,4.98z"/>
		</g>
		<g>
			<path class="st2" d="M11.66,74.24c-0.06,0-0.11-0.01-0.17-0.02c-0.33-0.09-0.52-0.43-0.43-0.76L22.3,33.17
				c0.09-0.33,0.43-0.51,0.76-0.43c0.33,0.09,0.52,0.43,0.43,0.76L12.26,73.79C12.18,74.06,11.93,74.24,11.66,74.24z"/>
		</g>
		<g>
			<path class="st2" d="M31.12,22.48c-0.28,0-0.54-0.2-0.6-0.49c-0.07-0.33,0.14-0.66,0.47-0.73l46.24-10
				c0.33-0.06,0.66,0.14,0.73,0.47s-0.14,0.66-0.47,0.73l-46.24,10C31.21,22.48,31.16,22.48,31.12,22.48z"/>
		</g>
		<g>
			<path class="st2" d="M137.3,22.48c-0.04,0-0.09,0-0.13-0.01l-44.84-10c-0.33-0.07-0.54-0.4-0.47-0.74
				c0.07-0.33,0.4-0.53,0.74-0.47l44.84,10c0.33,0.07,0.54,0.4,0.47,0.74C137.84,22.29,137.59,22.48,137.3,22.48z"/>
		</g>
		<g>
			<path class="st2" d="M151.25,74.24c-0.3,0-0.57-0.22-0.61-0.53l-5.45-40.28c-0.05-0.34,0.19-0.65,0.53-0.69
				c0.34-0.02,0.64,0.19,0.69,0.53l5.45,40.28c0.05,0.34-0.19,0.65-0.53,0.69C151.3,74.23,151.27,74.24,151.25,74.24z"/>
		</g>
		<g>
			<path class="st2" d="M114.88,151.19c-0.12,0-0.24-0.03-0.35-0.11l-13.03-8.88H90.17c-0.14,0-0.27-0.05-0.38-0.13l-12.36-9.74
				l-2.35,3.26l4.56,4.61l5.07,6.55c0.21,0.27,0.16,0.66-0.11,0.87c-0.27,0.2-0.66,0.16-0.87-0.11l-5.02-6.5l-4.87-4.93
				c-0.21-0.21-0.24-0.55-0.06-0.79l3.03-4.2c0.1-0.13,0.25-0.23,0.41-0.25c0.17-0.01,0.33,0.02,0.47,0.13l12.7,10h11.31
				c0.12,0,0.25,0.04,0.35,0.11l13.19,8.99c0.28,0.19,0.35,0.57,0.16,0.86C115.27,151.1,115.08,151.19,114.88,151.19z"/>
		</g>
		<g>
			<path class="st2" d="M95.69,161.51c-0.06,0-0.12-0.01-0.18-0.03l-34.19-10.32c-0.13-0.04-0.24-0.12-0.32-0.22l-11.84-16.05
				c-0.14-0.19-0.16-0.44-0.06-0.64c0.11-0.21,0.32-0.34,0.55-0.34h5.52c0.16,0,0.31,0.06,0.43,0.17l10.32,9.9h16.33
				c0.34,0,0.62,0.28,0.62,0.62c0,0.34-0.28,0.62-0.62,0.62H65.68c-0.16,0-0.31-0.06-0.43-0.17l-10.32-9.9h-4.05l10.99,14.91
				l34,10.26c0.32,0.1,0.51,0.44,0.41,0.77C96.2,161.34,95.95,161.51,95.69,161.51z"/>
		</g>
		<g>
			<path class="st3" d="M93.41,109.66H75.64v-7.06c0-2.66-1.01-5.13-2.84-6.97c-4.83-4.85-7.95-12.14-7.95-18.59
				c0-10.81,8.79-19.6,19.6-19.6s19.6,8.79,19.6,19.6c0,6.39-3.08,13.65-7.85,18.5c-1.8,1.83-2.8,4.29-2.8,6.92V109.66z
				 M76.87,108.43h15.3v-5.96c0-2.96,1.12-5.73,3.15-7.79c4.56-4.63,7.5-11.55,7.5-17.63c0-10.13-8.24-18.37-18.37-18.37
				s-18.37,8.24-18.37,18.37c0,6.14,2.98,13.09,7.59,17.72c2.06,2.07,3.2,4.85,3.2,7.84V108.43z"/>
		</g>
		<g>
			<path class="st3" d="M90.82,119.08H78.1v-10.44h12.72V119.08z M79.33,117.85h10.26v-7.98H79.33V117.85z"/>
		</g>
		<g>
			<rect x="79" y="111.47" class="st3" width="4.86" height="1.23"/>
		</g>
		<g>
			<rect x="79" y="114.42" class="st3" width="4.86" height="1.23"/>
		</g>
		<g>
			<rect x="83.77" y="84.15" class="st3" width="1.23" height="25.59"/>
		</g>
		<g>
			<path class="st3" d="M84.53,84.79c-2.48,0-4.86-0.34-6.9-0.99l0.37-1.17c3.96,1.26,9.55,1.21,13.4-0.12l0.4,1.16
				C89.7,84.4,87.18,84.79,84.53,84.79z"/>
		</g>
		<g>
			<path class="st3" d="M84.19,53.52c-0.34,0-0.62-0.28-0.62-0.62v-4.62c0-0.34,0.28-0.62,0.62-0.62c0.34,0,0.62,0.28,0.62,0.62
				v4.62C84.8,53.24,84.53,53.52,84.19,53.52z"/>
		</g>
		<g>
			<path class="st3" d="M60.79,82.38h-4.62c-0.34,0-0.62-0.28-0.62-0.62s0.28-0.62,0.62-0.62h4.62c0.34,0,0.62,0.28,0.62,0.62
				S61.13,82.38,60.79,82.38z"/>
		</g>
		<g>
			<path class="st3" d="M64.83,65.63c-0.16,0-0.31-0.06-0.44-0.18l-3.27-3.27c-0.24-0.24-0.24-0.63,0-0.87
				c0.24-0.24,0.63-0.24,0.87,0l3.27,3.27c0.24,0.24,0.24,0.63,0,0.87C65.15,65.57,64.99,65.63,64.83,65.63z"/>
		</g>
		<g>
			<path class="st3" d="M102.87,65.01c-0.16,0-0.31-0.06-0.44-0.18c-0.24-0.24-0.24-0.63,0-0.87l3.27-3.27
				c0.24-0.24,0.63-0.24,0.87,0c0.24,0.24,0.24,0.63,0,0.87l-3.27,3.27C103.18,64.95,103.03,65.01,102.87,65.01z"/>
		</g>
		<g>
			<path class="st3" d="M111.58,82.38h-4.62c-0.34,0-0.62-0.28-0.62-0.62s0.28-0.62,0.62-0.62h4.62c0.34,0,0.62,0.28,0.62,0.62
				S111.91,82.38,111.58,82.38z"/>
		</g>
	</g>
</g>
</svg>
